<svg width="411" height="130" viewBox="0 0 411 130" fill="none" xmlns="http://www.w3.org/2000/svg">
<mask id="mask0_footer" style="mask-type:luminance" maskUnits="userSpaceOnUse" x="0" y="0" width="97" height="96">
<path d="M0 0H96.0469V96H0V0Z" fill="white"/>
</mask>
<g mask="url(#mask0_footer)">
<path d="M47.6302 81.7396H95.3073V95.3698H47.6302C34.4896 95.3698 23.2708 90.6927 13.974 81.3958C4.67187 72.0938 0 60.875 0 47.6875V0.0625H13.6302V47.6875C13.6302 57.1354 16.9271 65.1094 23.5677 71.75C30.2083 78.3906 38.2292 81.7396 47.6302 81.7396Z" fill="#FFFFFF"/>
</g>
<mask id="mask1_footer" style="mask-type:luminance" maskUnits="userSpaceOnUse" x="24" y="33" width="97" height="98">
<path d="M24.0469 33.3333H120.083V130.005H24.0469V33.3333Z" fill="white"/>
</mask>
<g mask="url(#mask1_footer)">
<path d="M72.724 48.0313H25.0938V34.4531H72.724C85.9063 34.4531 97.125 39.0781 106.375 48.375C115.729 57.6771 120.349 68.8958 120.349 82.0833V129.714H106.724V82.0833C106.724 72.6875 103.427 64.6667 96.7813 58.0208C90.1406 51.3802 82.1198 48.0313 72.724 48.0313Z" fill="#F46530"/>
</g>
<mask id="mask2_footer" style="mask-type:luminance" maskUnits="userSpaceOnUse" x="106" y="0" width="15" height="55">
<path d="M106.714 0H120.083V54.6667H106.714V0Z" fill="white"/>
</mask>
<g mask="url(#mask2_footer)">
<path fill-rule="evenodd" clip-rule="evenodd" d="M106.724 1.09375H120.349V53.3958C118.036 49.6563 115.234 46.1615 111.938 42.8177C110.266 41.1458 108.542 39.6198 106.724 38.1927V1.09375Z" fill="#FFFFFF"/>
</g>
<mask id="mask3_footer" style="mask-type:luminance" maskUnits="userSpaceOnUse" x="0" y="110" width="19" height="21">
<path d="M0 110.667H18.7135V130.005H0V110.667Z" fill="white"/>
</mask>
<g mask="url(#mask3_footer)">
<path fill-rule="evenodd" clip-rule="evenodd" d="M9.34896 129.714C14.5156 129.714 18.6979 125.531 18.6979 120.365C18.6979 115.198 14.5156 111.016 9.34896 111.016C4.22917 111.016 0 115.198 0 120.365C0 125.531 4.22917 129.714 9.34896 129.714Z" fill="#F46530"/>
</g>
<path d="M159.995 52.5109V77.2818H154.266V67.1359H143.016V77.2818H137.287V52.5109H143.016V62.2818H154.266V52.5109H159.995Z" fill="#FFFFFF"/>
<path d="M192.024 72.6776V77.2818H172.858V52.5109H191.566V57.1151H178.545V62.4901H190.045V66.9484H178.545V72.6776H192.024Z" fill="#FFFFFF"/>
<path d="M203.585 52.5109H209.314V72.6151H221.731V77.2818H203.585V52.5109Z" fill="#FFFFFF"/>
<path d="M231.944 52.5109H237.673V77.2818H231.944V52.5109Z" fill="#FFFFFF"/>
<path d="M266.149 77.2818L260.17 68.6776L254.295 77.2818H247.711L256.878 64.6984L248.17 52.5109H254.69L260.378 60.5526L265.961 52.5109H272.149L263.524 64.4693L272.753 77.2818H266.149Z" fill="#FFFFFF"/>
<path d="M294.647 77.6984C292.115 77.6984 289.834 77.1515 287.792 76.0526C285.751 74.9588 284.147 73.438 282.98 71.4901C281.813 69.5474 281.23 67.3547 281.23 64.9067C281.23 62.4484 281.813 60.2505 282.98 58.3026C284.147 56.3599 285.751 54.839 287.792 53.7401C289.834 52.6463 292.126 52.0942 294.667 52.0942C296.818 52.0942 298.761 52.4797 300.501 53.2401C302.235 53.9901 303.688 55.0734 304.855 56.4901L301.188 59.8859C299.506 57.9432 297.428 56.9692 294.959 56.9692C293.428 56.9692 292.063 57.313 290.855 57.9901C289.647 58.6567 288.709 59.5942 288.042 60.8026C287.376 62.0005 287.042 63.3651 287.042 64.9067C287.042 66.438 287.376 67.8026 288.042 69.0109C288.709 70.2088 289.647 71.1463 290.855 71.8234C292.063 72.4901 293.428 72.8234 294.959 72.8234C297.428 72.8234 299.506 71.8442 301.188 69.8859L304.855 73.2817C303.688 74.7297 302.23 75.8234 300.48 76.5734C298.73 77.3234 296.782 77.6984 294.647 77.6984Z" fill="#FFFFFF"/>
<path d="M327.721 77.6984C325.138 77.6984 322.81 77.1515 320.742 76.0526C318.685 74.9432 317.076 73.4172 315.909 71.4692C314.742 69.5265 314.159 67.339 314.159 64.9067C314.159 62.4797 314.742 60.2922 315.909 58.3442C317.076 56.4015 318.685 54.8755 320.742 53.7609C322.81 52.6515 325.138 52.0942 327.721 52.0942C330.289 52.0942 332.596 52.6515 334.638 53.7609C336.69 54.8755 338.31 56.4015 339.492 58.3442C340.669 60.2922 341.263 62.4797 341.263 64.9067C341.263 67.339 340.669 69.5265 339.492 71.4692C338.31 73.4172 336.69 74.9432 334.638 76.0526C332.596 77.1515 330.289 77.6984 327.721 77.6984ZM327.721 72.8234C329.18 72.8234 330.497 72.4901 331.68 71.8234C332.857 71.1463 333.784 70.2088 334.451 69.0109C335.117 67.8026 335.451 66.438 335.451 64.9067C335.451 63.3651 335.117 62.0005 334.451 60.8026C333.784 59.5942 332.857 58.6567 331.68 57.9901C330.497 57.313 329.18 56.9692 327.721 56.9692C326.247 56.9692 324.919 57.313 323.742 57.9901C322.56 58.6567 321.638 59.5942 320.971 60.8026C320.305 62.0005 319.971 63.3651 319.971 64.9067C319.971 66.438 320.305 67.8026 320.971 69.0109C321.638 70.2088 322.56 71.1463 323.742 71.8234C324.919 72.4901 326.247 72.8234 327.721 72.8234Z" fill="#F46530"/>
<path d="M368.351 77.2818L363.581 70.3859H358.31V77.2818H352.581V52.5109H363.289C365.482 52.5109 367.383 52.8807 368.997 53.6151C370.622 54.3547 371.872 55.3963 372.747 56.7401C373.622 58.0734 374.06 59.6672 374.06 61.5109C374.06 63.3443 373.612 64.9276 372.726 66.2609C371.836 67.5943 370.581 68.6151 368.956 69.3234L374.518 77.2818H368.351ZM368.247 61.5109C368.247 60.1255 367.794 59.063 366.893 58.3234C366.003 57.5734 364.695 57.1984 362.976 57.1984H358.31V65.8234H362.976C364.695 65.8234 366.003 65.4484 366.893 64.6984C367.794 63.938 368.247 62.8755 368.247 61.5109Z" fill="#FFFFFF"/>
<path d="M404.738 72.6776V77.2818H385.571V52.5109H404.279V57.1151H391.258V62.4901H402.758V66.9484H391.258V72.6776H404.738Z" fill="#FFFFFF"/>
<path d="M208.676 97.3479C207.978 97.3479 207.306 97.2437 206.655 97.0354C206.014 96.8166 205.509 96.5302 205.134 96.1812L205.634 95.1604C205.978 95.4833 206.426 95.7385 206.967 95.9312C207.519 96.1291 208.092 96.2229 208.676 96.2229C209.436 96.2229 210.009 96.0979 210.384 95.8479C210.769 95.5875 210.967 95.2385 210.967 94.8062C210.967 94.4885 210.863 94.2333 210.655 94.0354C210.446 93.827 210.186 93.676 209.884 93.577C209.577 93.4677 209.144 93.3427 208.592 93.202C207.894 93.0354 207.332 92.8687 206.905 92.702C206.488 92.5354 206.124 92.2802 205.821 91.9312C205.514 91.5875 205.363 91.1135 205.363 90.5145C205.363 90.0302 205.488 89.5927 205.738 89.202C205.999 88.801 206.394 88.4833 206.926 88.2437C207.452 87.9937 208.113 87.8687 208.905 87.8687C209.446 87.8687 209.978 87.9468 210.509 88.0979C211.051 88.2385 211.509 88.4416 211.884 88.702L211.446 89.7645C211.056 89.5145 210.639 89.327 210.196 89.202C209.749 89.0666 209.321 88.9937 208.905 88.9937C208.155 88.9937 207.592 89.1343 207.217 89.4104C206.842 89.6916 206.655 90.0458 206.655 90.4729C206.655 90.7958 206.759 91.051 206.967 91.2437C207.186 91.4416 207.452 91.5927 207.759 91.702C208.077 91.8166 208.499 91.9312 209.03 92.0562C209.738 92.2229 210.301 92.3895 210.717 92.5562C211.134 92.7229 211.493 92.9833 211.801 93.327C212.103 93.676 212.259 94.1395 212.259 94.7229C212.259 95.2125 212.124 95.6552 211.863 96.0562C211.597 96.4468 211.196 96.7593 210.655 96.9937C210.124 97.2333 209.467 97.3479 208.676 97.3479Z" fill="#FFFFFF"/>
<path d="M226.621 89.1395H223.455V87.9937H231.101V89.1395H227.934V97.2437H226.621V89.1395Z" fill="#FFFFFF"/>
<path d="M246.972 97.3479C245.732 97.3479 244.768 96.9937 244.076 96.2854C243.393 95.577 243.055 94.5666 243.055 93.2437V87.9937H244.367V93.202C244.367 95.1916 245.232 96.1812 246.972 96.1812C247.815 96.1812 248.461 95.9416 248.909 95.452C249.367 94.952 249.597 94.202 249.597 93.202V87.9937H250.888V93.2437C250.888 94.577 250.539 95.5979 249.847 96.3062C249.164 97.0041 248.206 97.3479 246.972 97.3479Z" fill="#FFFFFF"/>
<path d="M264.187 87.9937H268.083C269.051 87.9937 269.921 88.1916 270.687 88.577C271.447 88.952 272.041 89.4937 272.458 90.202C272.874 90.9 273.083 91.702 273.083 92.6187C273.083 93.525 272.874 94.327 272.458 95.0354C272.041 95.7333 271.447 96.275 270.687 96.6604C269.921 97.051 269.051 97.2437 268.083 97.2437H264.187V87.9937ZM267.999 96.0979C268.749 96.0979 269.406 95.952 269.978 95.6604C270.546 95.3687 270.984 94.9625 271.291 94.4312C271.609 93.9052 271.77 93.301 271.77 92.6187C271.77 91.926 271.609 91.3218 271.291 90.8062C270.984 90.2802 270.546 89.8687 269.978 89.577C269.406 89.2854 268.749 89.1395 267.999 89.1395H265.499V96.0979H267.999Z" fill="#FFFFFF"/>
<path d="M285.698 87.9937H287.011V97.2437H285.698V87.9937Z" fill="#FFFFFF"/>
<path d="M304.551 97.3479C303.619 97.3479 302.78 97.15 302.03 96.7437C301.28 96.327 300.687 95.7593 300.26 95.0354C299.827 94.3166 299.614 93.5093 299.614 92.6187C299.614 91.7333 299.827 90.926 300.26 90.202C300.687 89.4677 301.28 88.9 302.03 88.4937C302.78 88.077 303.619 87.8687 304.551 87.8687C305.478 87.8687 306.322 88.077 307.072 88.4937C307.822 88.9 308.405 89.4625 308.822 90.1812C309.249 90.9052 309.468 91.7177 309.468 92.6187C309.468 93.525 309.249 94.3375 308.822 95.0562C308.405 95.7645 307.822 96.327 307.072 96.7437C306.322 97.15 305.478 97.3479 304.551 97.3479ZM304.551 96.1812C305.228 96.1812 305.843 96.0302 306.385 95.7229C306.926 95.4052 307.348 94.9729 307.655 94.4312C307.973 93.8895 308.135 93.2854 308.135 92.6187C308.135 91.9416 307.973 91.327 307.655 90.7854C307.348 90.2437 306.926 89.8218 306.385 89.5145C305.843 89.2125 305.228 89.0562 304.551 89.0562C303.869 89.0562 303.249 89.2125 302.697 89.5145C302.155 89.8218 301.723 90.2437 301.405 90.7854C301.098 91.327 300.947 91.9416 300.947 92.6187C300.947 93.2854 301.098 93.8895 301.405 94.4312C301.723 94.9729 302.155 95.4052 302.697 95.7229C303.249 96.0302 303.869 96.1812 304.551 96.1812Z" fill="#FFFFFF"/>
</svg>
